<?xml version="1.0" encoding="UTF-8" standalone="no"?>
<!DOCTYPE svg PUBLIC "-//W3C//DTD SVG 1.1//EN"
 "http://www.w3.org/Graphics/SVG/1.1/DTD/svg11.dtd">
<!-- Generated by graphviz version 12.2.0 (20241103.1931)
 -->
<!-- Pages: 1 -->
<svg width="1567pt" height="210pt"
 viewBox="0.00 0.00 1566.50 210.00" xmlns="http://www.w3.org/2000/svg" xmlns:xlink="http://www.w3.org/1999/xlink">
<g id="graph0" class="graph" transform="scale(1 1) rotate(0) translate(4 206)">
<polygon fill="white" stroke="none" points="-4,4 -4,-206 1562.5,-206 1562.5,4 -4,4"/>
<!-- 5360788512 -->
<g id="node1" class="node">
<title>5360788512</title>
<polygon fill="none" stroke="black" points="1.5,-165.5 1.5,-201.5 196.5,-201.5 196.5,-165.5 1.5,-165.5"/>
<text text-anchor="middle" x="16.25" y="-178.7" font-family="Times,serif" font-size="14.00">x1</text>
<polyline fill="none" stroke="black" points="31,-166 31,-201.5"/>
<text text-anchor="middle" x="70.88" y="-178.7" font-family="Times,serif" font-size="14.00">data 2.0000</text>
<polyline fill="none" stroke="black" points="110.75,-166 110.75,-201.5"/>
<text text-anchor="middle" x="153.62" y="-178.7" font-family="Times,serif" font-size="14.00">grad &#45;1.5000</text>
</g>
<!-- 5360953216* -->
<g id="node12" class="node">
<title>5360953216*</title>
<ellipse fill="none" stroke="black" cx="261" cy="-128.5" rx="27" ry="18"/>
<text text-anchor="middle" x="261" y="-123.45" font-family="Times,serif" font-size="14.00">*</text>
</g>
<!-- 5360788512&#45;&gt;5360953216* -->
<g id="edge12" class="edge">
<title>5360788512&#45;&gt;5360953216*</title>
<path fill="none" stroke="black" d="M172.12,-165.01C180.9,-162.35 189.7,-159.5 198,-156.5 208.09,-152.86 218.82,-148.27 228.47,-143.88"/>
<polygon fill="black" stroke="black" points="229.86,-147.09 237.45,-139.69 226.9,-140.75 229.86,-147.09"/>
</g>
<!-- 5360952880 -->
<g id="node2" class="node">
<title>5360952880</title>
<polygon fill="none" stroke="black" points="668.25,-82.5 668.25,-118.5 939,-118.5 939,-82.5 668.25,-82.5"/>
<text text-anchor="middle" x="720.88" y="-95.7" font-family="Times,serif" font-size="14.00">x1*w1 + x2*w2</text>
<polyline fill="none" stroke="black" points="773.5,-83 773.5,-118.5"/>
<text text-anchor="middle" x="815.62" y="-95.7" font-family="Times,serif" font-size="14.00">data &#45;6.0000</text>
<polyline fill="none" stroke="black" points="857.75,-83 857.75,-118.5"/>
<text text-anchor="middle" x="898.38" y="-95.7" font-family="Times,serif" font-size="14.00">grad 0.5000</text>
</g>
<!-- 5360952640+ -->
<g id="node7" class="node">
<title>5360952640+</title>
<ellipse fill="none" stroke="black" cx="1002" cy="-72.5" rx="27" ry="18"/>
<text text-anchor="middle" x="1002" y="-67.45" font-family="Times,serif" font-size="14.00">+</text>
</g>
<!-- 5360952880&#45;&gt;5360952640+ -->
<g id="edge9" class="edge">
<title>5360952880&#45;&gt;5360952640+</title>
<path fill="none" stroke="black" d="M934.24,-82.02C944.99,-80.49 955.18,-79.03 964.21,-77.75"/>
<polygon fill="black" stroke="black" points="964.46,-81.25 973.86,-76.37 963.47,-74.32 964.46,-81.25"/>
</g>
<!-- 5360952880+ -->
<g id="node3" class="node">
<title>5360952880+</title>
<ellipse fill="none" stroke="black" cx="605.25" cy="-100.5" rx="27" ry="18"/>
<text text-anchor="middle" x="605.25" y="-95.45" font-family="Times,serif" font-size="14.00">+</text>
</g>
<!-- 5360952880+&#45;&gt;5360952880 -->
<g id="edge1" class="edge">
<title>5360952880+&#45;&gt;5360952880</title>
<path fill="none" stroke="black" d="M632.73,-100.5C639.73,-100.5 647.79,-100.5 656.52,-100.5"/>
<polygon fill="black" stroke="black" points="656.39,-104 666.39,-100.5 656.39,-97 656.39,-104"/>
</g>
<!-- 5360945200 -->
<g id="node4" class="node">
<title>5360945200</title>
<polygon fill="none" stroke="black" points="711.75,-27.5 711.75,-63.5 895.5,-63.5 895.5,-27.5 711.75,-27.5"/>
<text text-anchor="middle" x="723.12" y="-40.7" font-family="Times,serif" font-size="14.00">b</text>
<polyline fill="none" stroke="black" points="734.5,-28 734.5,-63.5"/>
<text text-anchor="middle" x="774.38" y="-40.7" font-family="Times,serif" font-size="14.00">data 6.8814</text>
<polyline fill="none" stroke="black" points="814.25,-28 814.25,-63.5"/>
<text text-anchor="middle" x="854.88" y="-40.7" font-family="Times,serif" font-size="14.00">grad 0.5000</text>
</g>
<!-- 5360945200&#45;&gt;5360952640+ -->
<g id="edge6" class="edge">
<title>5360945200&#45;&gt;5360952640+</title>
<path fill="none" stroke="black" d="M895.91,-58.05C919.97,-61.36 944.58,-64.74 963.93,-67.4"/>
<polygon fill="black" stroke="black" points="963.36,-70.86 973.75,-68.75 964.32,-63.92 963.36,-70.86"/>
</g>
<!-- 5360947840 -->
<g id="node5" class="node">
<title>5360947840</title>
<polygon fill="none" stroke="black" points="2.25,-55.5 2.25,-91.5 195.75,-91.5 195.75,-55.5 2.25,-55.5"/>
<text text-anchor="middle" x="18.5" y="-68.7" font-family="Times,serif" font-size="14.00">w2</text>
<polyline fill="none" stroke="black" points="34.75,-56 34.75,-91.5"/>
<text text-anchor="middle" x="74.62" y="-68.7" font-family="Times,serif" font-size="14.00">data 1.0000</text>
<polyline fill="none" stroke="black" points="114.5,-56 114.5,-91.5"/>
<text text-anchor="middle" x="155.12" y="-68.7" font-family="Times,serif" font-size="14.00">grad 0.0000</text>
</g>
<!-- 5360953168* -->
<g id="node9" class="node">
<title>5360953168*</title>
<ellipse fill="none" stroke="black" cx="261" cy="-73.5" rx="27" ry="18"/>
<text text-anchor="middle" x="261" y="-68.45" font-family="Times,serif" font-size="14.00">*</text>
</g>
<!-- 5360947840&#45;&gt;5360953168* -->
<g id="edge8" class="edge">
<title>5360947840&#45;&gt;5360953168*</title>
<path fill="none" stroke="black" d="M195.84,-73.5C205.14,-73.5 214.15,-73.5 222.32,-73.5"/>
<polygon fill="black" stroke="black" points="222.13,-77 232.13,-73.5 222.13,-70 222.13,-77"/>
</g>
<!-- 5360952640 -->
<g id="node6" class="node">
<title>5360952640</title>
<polygon fill="none" stroke="black" points="1065,-54.5 1065,-90.5 1248.75,-90.5 1248.75,-54.5 1065,-54.5"/>
<text text-anchor="middle" x="1076.38" y="-67.7" font-family="Times,serif" font-size="14.00">n</text>
<polyline fill="none" stroke="black" points="1087.75,-55 1087.75,-90.5"/>
<text text-anchor="middle" x="1127.62" y="-67.7" font-family="Times,serif" font-size="14.00">data 0.8814</text>
<polyline fill="none" stroke="black" points="1167.5,-55 1167.5,-90.5"/>
<text text-anchor="middle" x="1208.12" y="-67.7" font-family="Times,serif" font-size="14.00">grad 0.5000</text>
</g>
<!-- 5360952256tanh -->
<g id="node14" class="node">
<title>5360952256tanh</title>
<ellipse fill="none" stroke="black" cx="1311.75" cy="-72.5" rx="27" ry="18"/>
<text text-anchor="middle" x="1311.75" y="-67.45" font-family="Times,serif" font-size="14.00">tanh</text>
</g>
<!-- 5360952640&#45;&gt;5360952256tanh -->
<g id="edge14" class="edge">
<title>5360952640&#45;&gt;5360952256tanh</title>
<path fill="none" stroke="black" d="M1249.01,-72.5C1257.39,-72.5 1265.52,-72.5 1272.98,-72.5"/>
<polygon fill="black" stroke="black" points="1272.95,-76 1282.95,-72.5 1272.95,-69 1272.95,-76"/>
</g>
<!-- 5360952640+&#45;&gt;5360952640 -->
<g id="edge2" class="edge">
<title>5360952640+&#45;&gt;5360952640</title>
<path fill="none" stroke="black" d="M1029.28,-72.5C1036.42,-72.5 1044.61,-72.5 1053.32,-72.5"/>
<polygon fill="black" stroke="black" points="1053.06,-76 1063.06,-72.5 1053.06,-69 1053.06,-76"/>
</g>
<!-- 5360953168 -->
<g id="node8" class="node">
<title>5360953168</title>
<polygon fill="none" stroke="black" points="326.25,-55.5 326.25,-91.5 540,-91.5 540,-55.5 326.25,-55.5"/>
<text text-anchor="middle" x="352.62" y="-68.7" font-family="Times,serif" font-size="14.00">x2*w2</text>
<polyline fill="none" stroke="black" points="379,-56 379,-91.5"/>
<text text-anchor="middle" x="418.88" y="-68.7" font-family="Times,serif" font-size="14.00">data 0.0000</text>
<polyline fill="none" stroke="black" points="458.75,-56 458.75,-91.5"/>
<text text-anchor="middle" x="499.38" y="-68.7" font-family="Times,serif" font-size="14.00">grad 0.5000</text>
</g>
<!-- 5360953168&#45;&gt;5360952880+ -->
<g id="edge10" class="edge">
<title>5360953168&#45;&gt;5360952880+</title>
<path fill="none" stroke="black" d="M540.42,-90.37C549.89,-91.87 559,-93.32 567.21,-94.62"/>
<polygon fill="black" stroke="black" points="566.63,-98.07 577.05,-96.18 567.72,-91.16 566.63,-98.07"/>
</g>
<!-- 5360953168*&#45;&gt;5360953168 -->
<g id="edge3" class="edge">
<title>5360953168*&#45;&gt;5360953168</title>
<path fill="none" stroke="black" d="M288.21,-73.5C296,-73.5 305.08,-73.5 314.82,-73.5"/>
<polygon fill="black" stroke="black" points="314.55,-77 324.55,-73.5 314.55,-70 314.55,-77"/>
</g>
<!-- 5360950624 -->
<g id="node10" class="node">
<title>5360950624</title>
<polygon fill="none" stroke="black" points="0,-110.5 0,-146.5 198,-146.5 198,-110.5 0,-110.5"/>
<text text-anchor="middle" x="16.25" y="-123.7" font-family="Times,serif" font-size="14.00">w1</text>
<polyline fill="none" stroke="black" points="32.5,-111 32.5,-146.5"/>
<text text-anchor="middle" x="74.62" y="-123.7" font-family="Times,serif" font-size="14.00">data &#45;3.0000</text>
<polyline fill="none" stroke="black" points="116.75,-111 116.75,-146.5"/>
<text text-anchor="middle" x="157.38" y="-123.7" font-family="Times,serif" font-size="14.00">grad 1.0000</text>
</g>
<!-- 5360950624&#45;&gt;5360953216* -->
<g id="edge13" class="edge">
<title>5360950624&#45;&gt;5360953216*</title>
<path fill="none" stroke="black" d="M198.14,-128.5C206.61,-128.5 214.8,-128.5 222.29,-128.5"/>
<polygon fill="black" stroke="black" points="222.29,-132 232.29,-128.5 222.29,-125 222.29,-132"/>
</g>
<!-- 5360953216 -->
<g id="node11" class="node">
<title>5360953216</title>
<polygon fill="none" stroke="black" points="324,-110.5 324,-146.5 542.25,-146.5 542.25,-110.5 324,-110.5"/>
<text text-anchor="middle" x="350.38" y="-123.7" font-family="Times,serif" font-size="14.00">x1*w1</text>
<polyline fill="none" stroke="black" points="376.75,-111 376.75,-146.5"/>
<text text-anchor="middle" x="418.88" y="-123.7" font-family="Times,serif" font-size="14.00">data &#45;6.0000</text>
<polyline fill="none" stroke="black" points="461,-111 461,-146.5"/>
<text text-anchor="middle" x="501.62" y="-123.7" font-family="Times,serif" font-size="14.00">grad 0.5000</text>
</g>
<!-- 5360953216&#45;&gt;5360952880+ -->
<g id="edge11" class="edge">
<title>5360953216&#45;&gt;5360952880+</title>
<path fill="none" stroke="black" d="M542.35,-110.69C551.12,-109.24 559.54,-107.86 567.19,-106.6"/>
<polygon fill="black" stroke="black" points="567.72,-110.06 577.02,-104.98 566.58,-103.15 567.72,-110.06"/>
</g>
<!-- 5360953216*&#45;&gt;5360953216 -->
<g id="edge4" class="edge">
<title>5360953216*&#45;&gt;5360953216</title>
<path fill="none" stroke="black" d="M288.21,-128.5C295.29,-128.5 303.43,-128.5 312.17,-128.5"/>
<polygon fill="black" stroke="black" points="312.01,-132 322.01,-128.5 312.01,-125 312.01,-132"/>
</g>
<!-- 5360952256 -->
<g id="node13" class="node">
<title>5360952256</title>
<polygon fill="none" stroke="black" points="1374.75,-54.5 1374.75,-90.5 1558.5,-90.5 1558.5,-54.5 1374.75,-54.5"/>
<text text-anchor="middle" x="1386.12" y="-67.7" font-family="Times,serif" font-size="14.00">o</text>
<polyline fill="none" stroke="black" points="1397.5,-55 1397.5,-90.5"/>
<text text-anchor="middle" x="1437.38" y="-67.7" font-family="Times,serif" font-size="14.00">data 0.7071</text>
<polyline fill="none" stroke="black" points="1477.25,-55 1477.25,-90.5"/>
<text text-anchor="middle" x="1517.88" y="-67.7" font-family="Times,serif" font-size="14.00">grad 1.0000</text>
</g>
<!-- 5360952256tanh&#45;&gt;5360952256 -->
<g id="edge5" class="edge">
<title>5360952256tanh&#45;&gt;5360952256</title>
<path fill="none" stroke="black" d="M1339.03,-72.5C1346.17,-72.5 1354.36,-72.5 1363.07,-72.5"/>
<polygon fill="black" stroke="black" points="1362.81,-76 1372.81,-72.5 1362.81,-69 1362.81,-76"/>
</g>
<!-- 5360948704 -->
<g id="node15" class="node">
<title>5360948704</title>
<polygon fill="none" stroke="black" points="3.75,-0.5 3.75,-36.5 194.25,-36.5 194.25,-0.5 3.75,-0.5"/>
<text text-anchor="middle" x="18.5" y="-13.7" font-family="Times,serif" font-size="14.00">x2</text>
<polyline fill="none" stroke="black" points="33.25,-1 33.25,-36.5"/>
<text text-anchor="middle" x="73.12" y="-13.7" font-family="Times,serif" font-size="14.00">data 0.0000</text>
<polyline fill="none" stroke="black" points="113,-1 113,-36.5"/>
<text text-anchor="middle" x="153.62" y="-13.7" font-family="Times,serif" font-size="14.00">grad 0.5000</text>
</g>
<!-- 5360948704&#45;&gt;5360953168* -->
<g id="edge7" class="edge">
<title>5360948704&#45;&gt;5360953168*</title>
<path fill="none" stroke="black" d="M172.12,-36.99C180.9,-39.65 189.7,-42.5 198,-45.5 208.09,-49.14 218.82,-53.73 228.47,-58.12"/>
<polygon fill="black" stroke="black" points="226.9,-61.25 237.45,-62.31 229.86,-54.91 226.9,-61.25"/>
</g>
</g>
</svg>
